# xmcd
#
# Track frame offsets:
#	150
#	14919
#	38481
#	51910
#	71431
#	87160
#	102622
#	121917
#	139298
#	155095
#	178298
#	199187
#	208476
# Disc length: 3023 seconds
# Revision: 1
# Processed by: cddbd v1.5.2PL0 Copyright (c) Steve Scherf et al.
#
# Submitted via: libkcddb 0.31
#
DISCID=ca0bcd0d
DTITLE=Howard Berkman Band - Blue Testament
DYEAR=1999
DGENRE=Blues
TTITLE0=Life's Tough
TTITLE1=Head Shrinkin' Woman
TTITLE2=Viva Chicago
TTITLE3=Rocky Watsons Groove
TTITLE4=Highway Sixty one
TTITLE5=Green Blues
TTITLE6=Goin' to Chicago
TTITLE7=Mama's Pontiac
TTITLE8=Little Vampire
TTITLE9=Stella Azul
TTITLE10=St. James Infirmary
TTITLE11=Love Without End
TTITLE12=Gypsy Blue
EXTD=
EXTT0=
EXTT1=
EXTT2=
EXTT3=
EXTT4=
EXTT5=
EXTT6=
EXTT7=
EXTT8=
EXTT9=
EXTT10=
EXTT11=
EXTT12=
PLAYORDER=
